<svg xmlns="http://www.w3.org/2000/svg" viewBox="0 0 246.85 246.85"><path d="M123.43,22.24c32.95,0,36.86.12,49.87.72,12,.55,18.57,2.56,22.92,4.25a38.25,38.25,0,0,1,14.19,9.23,38.25,38.25,0,0,1,9.23,14.19c1.69,4.35,3.7,10.89,4.25,22.92.6,13,.72,16.92.72,49.88s-.12,36.86-.72,49.87c-.55,12-2.56,18.57-4.25,22.92a40.85,40.85,0,0,1-23.42,23.42c-4.35,1.69-10.89,3.7-22.92,4.25-13,.6-16.92.72-49.87.72s-36.87-.12-49.88-.72c-12-.55-18.57-2.56-22.92-4.25a38.25,38.25,0,0,1-14.19-9.23,38.25,38.25,0,0,1-9.23-14.19c-1.69-4.35-3.7-10.89-4.25-22.92-.6-13-.72-16.92-.72-49.87s.12-36.86.72-49.88c.55-12,2.56-18.57,4.25-22.92a38.25,38.25,0,0,1,9.23-14.19,38.25,38.25,0,0,1,14.19-9.23C55,25.52,61.52,23.51,73.55,23c13-.6,16.92-.72,49.88-.72m0-22.24C89.91,0,85.7.14,72.54.74s-22.11,2.69-30,5.74A60.3,60.3,0,0,0,20.72,20.72,60.3,60.3,0,0,0,6.48,42.58C3.43,50.43,1.34,59.4.74,72.54S0,89.91,0,123.43s.14,37.72.74,50.88,2.69,22.11,5.74,30a60.42,60.42,0,0,0,14.24,21.87,60.4,60.4,0,0,0,21.86,14.23c7.85,3,16.82,5.14,30,5.74s17.37.74,50.89.74,37.72-.14,50.88-.74,22.11-2.69,30-5.74a63,63,0,0,0,36.1-36.1c3-7.85,5.14-16.82,5.74-30s.74-17.36.74-50.88-.14-37.73-.74-50.89-2.69-22.11-5.74-30a60.4,60.4,0,0,0-14.23-21.86A60.42,60.42,0,0,0,204.27,6.48c-7.85-3.05-16.82-5.14-30-5.74S157,0,123.43,0Z" style="fill:#fff"/><path d="M123.43,60.05a63.38,63.38,0,1,0,63.38,63.38A63.38,63.38,0,0,0,123.43,60.05Zm0,104.52a41.15,41.15,0,1,1,41.14-41.14A41.14,41.14,0,0,1,123.43,164.57Z" style="fill:#fff"/><circle cx="189.31" cy="57.54" r="14.81" style="fill:#fff"/></svg>