<svg xmlns="http://www.w3.org/2000/svg" viewBox="0 0 122 28"><path d="M118.45,3.52v6.53h2.42v3.16h-2.42V19.1a1.71,1.71,0,0,0,.45,1.29,1.91,1.91,0,0,0,1.36.43H122v3.73h-3a5.74,5.74,0,0,1-3.78-1.14,4.77,4.77,0,0,1-1.51-3.88V13.14H111.5V10h2.19V3.52ZM104.32,24.84a7.42,7.42,0,0,1-5.36-2,6.62,6.62,0,0,1-2-5V17.3a8.11,8.11,0,0,1,1.81-5.45,7.58,7.58,0,0,1,10-.36,6.44,6.44,0,0,1,1.73,4.81v2.37h-8.68v.07a2.66,2.66,0,0,0,1,1.79,3,3,0,0,0,2.11.72,8.45,8.45,0,0,0,2.12-.21,12.74,12.74,0,0,0,2-.72l1.13,2.8a9.32,9.32,0,0,1-2.57,1.22A10.73,10.73,0,0,1,104.32,24.84ZM104,13.21a1.66,1.66,0,0,0-1.52.72,4.69,4.69,0,0,0-.6,1.86l.08.08H106v-.36a2.45,2.45,0,0,0-.46-1.65A1.86,1.86,0,0,0,104,13.21ZM88.38,24.84a7.42,7.42,0,0,1-5.36-2,6.92,6.92,0,0,1-2-5V17.3a8.11,8.11,0,0,1,1.81-5.45,7.58,7.58,0,0,1,10-.36,6.66,6.66,0,0,1,1.73,4.81v2.37H86v.07a2.66,2.66,0,0,0,1,1.79,3,3,0,0,0,2.11.72A8.45,8.45,0,0,0,91.18,21a12.74,12.74,0,0,0,2-.72l1.13,2.8a9.32,9.32,0,0,1-2.57,1.22A10.16,10.16,0,0,1,88.38,24.84Zm-.3-11.63a1.63,1.63,0,0,0-1.51.72,4.54,4.54,0,0,0-.6,1.86l.07.08h4.08v-.36a2.45,2.45,0,0,0-.45-1.65A1.88,1.88,0,0,0,88.08,13.21ZM74,18.38l1.66-8.47h4.3L76.45,24.48h-4L70,16.73h-.07l-2.5,7.75h-4L59.83,10h4.38l1.66,8.54H66L68.37,10h3Zm-20,2a1.26,1.26,0,0,0-.68-1,7.29,7.29,0,0,0-2.34-.79,10.82,10.82,0,0,1-4-1.5,3.46,3.46,0,0,1-1.36-2.87,4.36,4.36,0,0,1,1.66-3.31,6.92,6.92,0,0,1,4.54-1.29,7.9,7.9,0,0,1,4.76,1.29,3.65,3.65,0,0,1,1.66,3.38v.07H53.63a1.68,1.68,0,0,0-.45-1.29,2.09,2.09,0,0,0-1.43-.43,2,2,0,0,0-1.29.43,1.13,1.13,0,0,0-.53,1,1.24,1.24,0,0,0,.61,1,6.74,6.74,0,0,0,2.34.71A10.37,10.37,0,0,1,57,17.3a3.49,3.49,0,0,1,1.36,2.95,3.87,3.87,0,0,1-1.81,3.23,8,8,0,0,1-4.76,1.29,7.45,7.45,0,0,1-4.91-1.51,3.92,3.92,0,0,1-1.67-3.37v-.07h4.31a1.45,1.45,0,0,0,.68,1.43,4,4,0,0,0,1.74.5,2.37,2.37,0,0,0,1.43-.36A1,1,0,0,0,53.94,20.39ZM33.39,9.91l.15,2a5.51,5.51,0,0,1,1.81-1.65,4.69,4.69,0,0,1,2.42-.65A4.75,4.75,0,0,1,41.25,11a6.31,6.31,0,0,1,1.28,4.38v9.12H37.92v-9a2.18,2.18,0,0,0-.53-1.73,2.16,2.16,0,0,0-1.58-.5,3.14,3.14,0,0,0-1.21.22,2,2,0,0,0-.91.64V24.55H29V10h4.38ZM26.14,7.18H21.38V3.52h4.76Zm0,17.37H21.38V10h4.76ZM11,24.55V13.07H8.76V9.91H11V8.4a5.14,5.14,0,0,1,1.51-3.88,5.88,5.88,0,0,1,3.78-1.15h3V7H17.53a1.88,1.88,0,0,0-1.36.43,1.65,1.65,0,0,0-.46,1.29V9.84h2.95V13H15.71V24.41H11ZM1.89,4.74C1.89.36,4.31,0,8.39,0V3.45c-1.89,0-2.65.28-2.65,1.36v5.67c0,1.29.08,2.66-1.06,3.52,1.14.86,1.06,2.15,1.06,3.52v5.67c0,1.15.76,1.36,2.65,1.36V28c-4.08,0-6.5-.36-6.5-4.74V17.52c0-.94,0-1.94-1.89-1.94v-3c1.89,0,1.89-1.07,1.89-1.93Z" style="fill:#fff"/></svg>