<svg xmlns="http://www.w3.org/2000/svg" viewBox="0 0 288 288"><rect width="288" height="288" style="fill:#ffc800"/><path d="M144,176.57c-20.63,0-39.55-10.15-49.37-26.48A2,2,0,1,1,98.09,148c9.11,15.13,26.72,24.54,45.95,24.54S180.87,163.16,190,148a2,2,0,1,1,3.42,2.06C183.58,166.42,164.66,176.57,144,176.57Z" style="fill:#003957"/><path d="M90.91,156a2,2,0,0,1-.48-.06A2,2,0,0,1,89,153.54c.9-3.71,5.19-10.3,15-8.67a2,2,0,1,1-.65,3.95c-8.38-1.39-10.26,5-10.45,5.68A2,2,0,0,1,90.91,156Z" style="fill:#003957"/><path d="M197.09,156a2,2,0,0,1-1.94-1.51c-.19-.74-2.08-7.07-10.45-5.68a2,2,0,1,1-.65-3.95c9.79-1.63,14.08,5,15,8.67a2,2,0,0,1-1.47,2.42A1.93,1.93,0,0,1,197.09,156Z" style="fill:#003957"/><path d="M125.64,117.93a6.5,6.5,0,1,1-6.5-6.5A6.5,6.5,0,0,1,125.64,117.93Z" style="fill:#003957"/><path d="M175.75,117.93a6.5,6.5,0,1,1-6.49-6.5A6.5,6.5,0,0,1,175.75,117.93Z" style="fill:#003957"/></svg>