<svg xmlns="http://www.w3.org/2000/svg" viewBox="0 0 246.85 246.85"><path d="M77.63,223.73c93.16,0,144.1-77.17,144.1-144.09,0-2.2,0-4.38-.14-6.55a103.23,103.23,0,0,0,25.26-26.22,100.93,100.93,0,0,1-29.08,8,50.86,50.86,0,0,0,22.27-28,101.34,101.34,0,0,1-32.16,12.3,50.7,50.7,0,0,0-86.31,46.19A143.79,143.79,0,0,1,17.18,32.39,50.68,50.68,0,0,0,32.86,100,50.3,50.3,0,0,1,9.92,93.67c0,.21,0,.42,0,.64A50.66,50.66,0,0,0,50.54,144a50.27,50.27,0,0,1-22.87.87A50.7,50.7,0,0,0,75,180a101.63,101.63,0,0,1-62.9,21.68A104.65,104.65,0,0,1,0,201a143.4,143.4,0,0,0,77.63,22.74" style="fill:#fff"/><rect width="246.85" height="246.85" style="fill:none"/></svg>